<svg width="43" height="43" viewBox="0 0 43 43" fill="none" xmlns="http://www.w3.org/2000/svg">
<path d="M32.1259 25.6399C31.6734 26.0784 31.4655 26.7126 31.5685 27.3346L33.1218 35.9305C33.2528 36.6591 32.9453 37.3964 32.3355 37.8174C31.738 38.2542 30.9431 38.3066 30.2914 37.9572L22.5533 33.9213C22.2843 33.778 21.9855 33.7012 21.6798 33.6924H21.2063C21.0421 33.7169 20.8813 33.7693 20.7346 33.8497L12.9948 37.9048C12.6121 38.097 12.1789 38.1651 11.7543 38.097C10.72 37.9013 10.0299 36.9159 10.1994 35.8764L11.7543 27.2805C11.8574 26.6532 11.6495 26.0155 11.197 25.57L4.88807 19.455C4.36043 18.9431 4.17698 18.1744 4.41809 17.4808C4.6522 16.7889 5.24972 16.284 5.97129 16.1704L14.6545 14.9107C15.315 14.8426 15.895 14.4408 16.192 13.8467L20.0182 6.00211C20.1091 5.82739 20.2262 5.66666 20.3677 5.53038L20.5249 5.40808C20.607 5.31723 20.7014 5.2421 20.8062 5.18095L20.9966 5.11107L21.2937 4.98877H22.0292C22.6861 5.05691 23.2644 5.45001 23.5667 6.03705L27.4436 13.8467C27.7231 14.4181 28.2665 14.8147 28.8937 14.9107L37.5769 16.1704C38.3107 16.2753 38.924 16.7819 39.1668 17.4808C39.3957 18.1814 39.1983 18.9501 38.6602 19.455L32.1259 25.6399Z" fill="#FDC040"/>
</svg>
